<?xml version="1.0" encoding="utf-8"?>
<!-- Generator: Adobe Illustrator 24.3.0, SVG Export Plug-In . SVG Version: 6.00 Build 0)  -->
<svg version="1.1" id="Layer_1" xmlns="http://www.w3.org/2000/svg" xmlns:xlink="http://www.w3.org/1999/xlink" x="0px" y="0px"
	 viewBox="0 0 500 100" style="enable-background:new 0 0 500 100;" xml:space="preserve">
<g>
	<path d="M252,85.2c1-1.7,1.9-3.3,2.9-5c3,1.9,6.1,3.2,9.5,3.8c3.4,0.6,6.7,0.6,10.1-0.4c5.2-1.6,7.7-6.1,7-11.7
		c-3.8,0-7.7,0-11.5,0c-4.7-0.1-9.2-1-13.4-3.2c-7.2-3.8-11-9.9-10.9-18.1c0.1-8.3,4.2-14.2,11.6-17.8c3.8-1.9,8-2.8,12.2-2.8
		c7.6-0.1,15.2,0,22.7,0c0.4,0,0.7,0,1.2,0.1c0,0.6,0,1.1,0,1.7c0,13.2,0,26.4,0,39.6c0,9.3-4.2,15-13.2,17.5
		c-9.2,2.5-18.3,1.9-26.8-2.7C253,85.9,252.5,85.6,252,85.2z M281.6,35.8c-4,0-7.8-0.2-11.6,0c-5.7,0.3-9.4,3.4-10.9,8.6
		c-1.1,3.9-1.1,7.8-0.3,11.7c1,5,3.9,8.5,8.9,9.3c4.5,0.7,9.1,0.5,13.8,0.6C281.6,55.9,281.6,45.9,281.6,35.8z"/>
	<path d="M497.2,30c0,0.6,0,1,0,1.5c0,13.7,0,27.3,0,41c0,6.3-2.5,11.2-8.1,14.3c-2.4,1.3-5,2.2-7.7,2.8c-7.8,1.6-15.5,1-22.8-2.5
		c-1-0.5-1.9-1.1-3-1.7c1-1.7,2-3.4,2.7-4.7c3.4,1.2,6.5,2.4,9.8,3.3c3.1,0.8,6.4,0.6,9.5-0.2c5.4-1.4,8.4-6.1,7.5-11.9
		c-3.6,0-7.3,0.2-11-0.1c-3.2-0.2-6.5-0.5-9.6-1.4c-6.8-1.9-12-6-14.2-12.9c-3.3-10.4,0.9-22,14.2-26c3-0.9,6.3-1.3,9.4-1.4
		c7.2-0.2,14.4-0.1,21.6-0.1C496.2,30,496.6,30,497.2,30z M485.3,65.8c0-10,0-19.9,0-29.9c-3.9,0-7.7-0.2-11.5,0
		c-5.7,0.3-9.4,3.4-10.9,8.6c-1.1,3.8-1.1,7.7-0.3,11.6c1.3,5.9,4.4,9,10.4,9.6C477,66.2,481.1,65.8,485.3,65.8z"/>
	<path d="M118.8,73.4c-3.9,0-7.7,0-11.6,0c0-0.6,0-1.1,0-1.6c0-8.1,0-16.3,0-24.4c0-1.3-0.1-2.7-0.4-4c-0.9-4.1-3.4-6.8-7.8-7.2
		c-4.7-0.5-9.5-0.4-14.4-0.5c0,12.7,0,25.2,0,37.7c-3.9,0-7.8,0-11.7,0c0-19.5,0-38.9,0-58.4c3.9,0,7.6,0,11.6,0c0,5,0,9.9,0,15
		c1.4,0,2.6,0,3.9,0c4.3,0.1,8.7,0,13,0.3c4.5,0.3,8.9,1.5,12.5,4.5c3.3,2.7,4.9,6.4,5,10.5c0.2,9.3,0.1,18.5,0.1,27.8
		C118.9,73.2,118.8,73.2,118.8,73.4z"/>
	<path d="M62.4,22.9c-1.5,1.8-2.9,3.4-4.3,5.2c-0.8-0.7-1.6-1.4-2.5-2c-7.5-5.7-15.8-7.7-24.9-5.5c-5.3,1.2-9.4,4.3-11.7,9.1
		c-4.5,9.4-4.6,19.1-0.3,28.5c3,6.4,8.6,9.5,15.5,10.3c9.4,1.1,17.6-1.6,24.6-8.1c1.4,1.7,2.8,3.3,4.4,5.2c-2.3,1.6-4.5,3.3-6.9,4.7
		c-7.5,4.2-15.6,5.5-24.2,4.7c-6-0.6-11.7-2-16.8-5.3C8.1,65,4.3,58.1,3.2,49.7c-0.9-6.4-0.5-12.8,2.1-18.9
		c3.7-8.8,10.5-14,19.6-16.2C36.1,11.8,46.9,12.8,57,19C58.8,20.1,60.5,21.5,62.4,22.9z"/>
	<path d="M353.8,56.2c-12,0-23.8,0-35.6,0c-0.4,5.5,4,11.2,9.6,12.5c6.5,1.6,12.4-0.2,17.8-3.9c0.4-0.3,0.8-0.5,1.1-0.8
		c0.1,0,0.2,0,0.4-0.1c1.1,1.6,2.1,3.2,3.3,4.9c-2.3,2.1-5,3.5-7.8,4.4C334.3,76,326,76,318,72.6c-7.8-3.3-11.8-9.5-12.7-17.9
		c-0.4-3.9-0.1-7.7,1.1-11.4c2.2-6.7,6.6-11.2,13.3-13.5c6.9-2.3,13.9-2.2,20.7,0.5c8.2,3.2,13.3,10.8,13.5,19.7
		C353.8,52,353.8,54,353.8,56.2z M317.8,50.2c7.8,0,15.5,0,23.3,0c0.1-4.1-0.6-7.9-2.8-11.3c-2.2-3.4-5.3-5.2-9.3-5
		c-4,0.1-7,2.1-8.9,5.7C318.4,42.9,317.8,46.5,317.8,50.2z"/>
	<path d="M414.4,28.1c4.8,0.1,9.3,0.9,13.6,3c5.4,2.6,9,6.8,10.8,12.5c1.7,5.4,1.7,10.9,0,16.3c-1.9,6-5.8,10.3-11.6,12.7
		c-8.3,3.4-16.8,3.5-25.1,0.2c-8-3.3-12.2-9.6-13.1-18.2c-0.5-4.7,0-9.3,2-13.6c3.3-7.1,9.3-10.8,16.7-12.2
		C410,28.5,412.2,28.4,414.4,28.1z M427.3,51.8c0.1-3.5-0.3-6.9-1.7-10.2c-2.1-5-6-7.7-11.2-7.7c-5.2,0-9.2,2.8-11.3,7.8
		c-1.9,4.6-2,9.4-1.4,14.2c0.3,2.5,1.1,5,2.1,7.3c2,4.2,5.6,6.3,10.3,6.4c4.7,0.1,8.3-1.9,10.7-6.1
		C426.9,59.9,427.4,55.9,427.3,51.8z"/>
	<path d="M163.2,45.9c0.4-6.9-3.9-11.6-10.7-11.7c-4.6-0.1-9,1.1-13,3.4c-0.4,0.2-0.8,0.5-1.4,0.8c-1-1.7-1.9-3.3-3-5.2
		c1.8-0.9,3.5-1.8,5.3-2.5c7.9-2.9,15.9-3.5,23.9-0.4c7,2.7,10.7,8.3,10.7,15.7c0,8.6,0,17.2,0,25.8c0,0.5,0,1,0,1.6
		c-0.5,0-0.9,0.1-1.3,0.1c-8.3,0-16.6,0.1-25,0c-4.2-0.1-8.4-0.6-12.3-2.5c-4.8-2.2-7.1-6.1-7.1-11.3c0-5.2,2.3-9.1,7.1-11.3
		c3.9-1.8,8.2-2.4,12.5-2.5C153.6,45.8,158.4,45.9,163.2,45.9z M163.2,51.7c-2.5,0-4.9,0-7.3,0c-2.5,0-4.9,0.1-7.4,0.3
		c-2.2,0.2-4.2,1.1-5.5,3.1c-3.3,5.1-0.3,11.6,5.7,12.1c4.7,0.4,9.5,0.2,14.2,0.3c0.1,0,0.1-0.1,0.2-0.2
		C163.2,62.3,163.2,57.1,163.2,51.7z"/>
	<path d="M234.4,73.4c-3.9,0-7.7,0-11.7,0c0-0.5,0-1,0-1.5c0-8.2,0-16.4,0-24.6c0-1.3-0.1-2.6-0.4-3.9c-0.9-4.3-3.8-7.1-8.1-7.3
		c-4.6-0.3-9.3-0.1-14.1-0.1c0,12.3,0,24.8,0,37.3c-3.9,0-7.7,0-11.6,0c0-14.4,0-28.8,0-43.4c0.3,0,0.7-0.1,1-0.1c8,0,16-0.1,24,0
		c4.1,0.1,8.2,0.7,12.1,2.4c5.5,2.5,8.6,6.8,8.8,12.7C234.6,54.5,234.4,63.9,234.4,73.4z"/>
	<path d="M376.9,73.4c-3.9,0-7.7,0-11.6,0c0-19.5,0-38.9,0-58.4c3.8,0,7.6,0,11.6,0C376.9,34.4,376.9,53.9,376.9,73.4z"/>
</g>
</svg>
